<svg xmlns="http://www.w3.org/2000/svg" version="1.1" xmlns:xlink="http://www.w3.org/1999/xlink" xmlns:svgjs="http://svgjs.dev/svgjs" width="1500" height="503" viewBox="0 0 1500 503"><g transform="matrix(1,0,0,1,-0.9090909090909918,-0.8468030644267799)"><svg viewBox="0 0 396 133" data-background-color="#ffffff" preserveAspectRatio="xMidYMid meet" height="503" width="1500" xmlns="http://www.w3.org/2000/svg" xmlns:xlink="http://www.w3.org/1999/xlink"><g id="tight-bounds" transform="matrix(1,0,0,1,0.2400000000000091,0.2239061780691145)"><svg viewBox="0 0 395.52 132.5521876438618" height="132.5521876438618" width="395.52"><g><svg viewBox="0 0 640.0082888522322 214.48851839999998" height="132.5521876438618" width="395.52"><g transform="matrix(1,0,0,1,244.48828885223224,43.7058850064516)"><svg viewBox="0 0 395.52 127.07674838709677" height="127.07674838709677" width="395.52"><g id="textblocktransform"><svg viewBox="0 0 395.52 127.07674838709677" height="127.07674838709677" width="395.52" id="textblock"><g><svg viewBox="0 0 395.52 127.07674838709677" height="127.07674838709677" width="395.52"><g transform="matrix(1,0,0,1,0,0)"><svg width="395.52" viewBox="2.6 -37.1 116.24000000000001 37.35" height="127.07674838709677" data-palette-color="#4d331f"><path d="M8.9 0L8.9 0Q6.2 0 4.53-1.78 2.85-3.55 2.85-6.45L2.85-6.45 3.15-12.2 2.6-24.2 9.3-25.45 8.65-10.25Q8.65-8.1 9.43-7.1 10.2-6.1 11.9-6.1 13.6-6.1 16.6-7.8L16.6-7.8 16.6-10.8 16.05-23.95 22.8-25.2 22.2-12.7 22.25-8.6Q22.25-5.4 23.9-2.15L23.9-2.15 18.7 0.15Q17.05-3.1 16.7-5.05L16.7-5.05Q12.2 0 8.9 0ZM42.9-12.65Q42.9-16.1 42.3-17.25 41.7-18.4 39.5-18.4 37.3-18.4 34.5-16.65L34.5-16.65 34.5-13 35.05-1.25 28.35 0 28.95-12.15Q28.75-18.85 27.85-24.15L27.85-24.15 33.9-25.45Q34.25-22.55 34.4-19.8L34.4-19.8Q35.15-20.8 36.1-21.78 37.05-22.75 39.1-23.98 41.15-25.2 43.25-25.2 45.35-25.2 46.8-23.85 48.25-22.5 48.65-20.15L48.65-20.15Q52.8-25.2 57.05-25.2L57.05-25.2Q59.7-25.2 61.25-23.43 62.8-21.65 62.8-18.6L62.8-18.6 62.5-13 63.05-1 56.3 0.25 56.9-12.65Q56.9-16.1 56.3-17.25 55.7-18.4 53.55-18.4 51.4-18.4 48.7-16.75L48.7-16.75 48.5-13 49.05-1 42.3 0.25 42.9-12.65ZM73.55 0Q70.6 0 68.72-1.88 66.85-3.75 66.85-6.93 66.85-10.1 69.75-12.43 72.65-14.75 76.8-14.75L76.8-14.75 80.2-14.75 80.2-15.6Q80.2-18.05 79.2-18.95 78.2-19.85 75.45-19.85L75.45-19.85Q74.3-19.85 72.72-19.38 71.15-18.9 69.2-17.9L69.2-17.9 67.75-21.85Q69.9-23.35 72.97-24.55 76.05-25.75 78.05-25.75L78.05-25.75Q85.9-25.75 85.9-18.15L85.9-18.15 85.9-8.35Q85.9-5.55 87.65-2.1L87.65-2.1 82.35 0.15Q81.1-2.25 80.5-4.15L80.5-4.15Q77.75 0 73.55 0L73.55 0ZM75.65-5.1L75.65-5.1Q77.65-5.1 80.2-7.15L80.2-7.15 80.2-10.5Q77.55-11.1 75.9-11.1L75.9-11.1Q72.75-11.1 72.75-8.3L72.75-8.3Q72.75-6.85 73.55-5.98 74.35-5.1 75.65-5.1ZM91.99-24.2L98.69-25.45 98.09-13 98.64-1.25 91.94 0 92.54-12.15 91.99-24.2ZM91.64-32.77Q91.64-34.45 92.94-35.77 94.24-37.1 95.94-37.1 97.64-37.1 98.54-36.18 99.44-35.25 99.44-33.4 99.44-31.55 98.17-30.23 96.89-28.9 95.22-28.9 93.54-28.9 92.59-30 91.64-31.1 91.64-32.77ZM103.64-24.15L103.64-24.15 109.69-25.45Q110.14-21.6 110.29-18.15L110.29-18.15Q114.84-25.2 118.84-25.2L118.84-25.2 118.29-17.4Q115.39-17.4 113.72-16.88 112.04-16.35 110.29-14.8L110.29-14.8 110.29-13 110.84-1.25 104.14 0 104.74-12.15Q104.54-18.85 103.64-24.15Z" opacity="1" transform="matrix(1,0,0,1,0,0)" fill="#4d331f" class="wordmark-text-0" data-fill-palette-color="primary" id="text-0"></path></svg></g></svg></g></svg></g></svg></g><g><svg viewBox="0 0 214.48851839999998 214.48851839999998" height="214.48851839999998" width="214.48851839999998"><g><svg></svg></g><g id="icon-0"><svg viewBox="0 0 214.48851839999998 214.48851839999998" height="214.48851839999998" width="214.48851839999998"><g><rect width="195.02567136" height="195.02567136" x="9.731423519999993" y="9.731423519999993" fill="#4d331f" data-fill-palette-color="accent"></rect><rect width="195.02567136" height="195.02567136" x="19.462847039999993" y="-5.329070518200751e-15" fill="#4d331f" opacity="0.5" data-fill-palette-color="accent"></rect></g><g transform="matrix(1,0,0,1,27.80406719999999,38.439184274029614)"><svg viewBox="0 0 158.880384 137.61014985194075" height="137.61014985194075" width="158.880384"><g><svg xmlns="http://www.w3.org/2000/svg" xmlns:xlink="http://www.w3.org/1999/xlink" version="1.1" x="0" y="0" viewBox="5.018 11.04 89.964 77.91999999999999" enable-background="new 0 0 100 100" xml:space="preserve" height="137.61014985194075" width="158.880384" class="icon-dxe-0" data-fill-palette-color="quaternary" id="dxe-0"><path d="M49.984 11.04L5.018 88.96 94.982 88.941zM49.986 22.17L74.163 64.025H25.832zM22.37 70.025H77.629L85.342 83.379 14.656 83.394z" fill="#ffffff" data-fill-palette-color="quaternary"></path></svg></g></svg></g></svg></g></svg></g></svg></g><defs></defs></svg><rect width="395.52" height="132.5521876438618" fill="none" stroke="none" visibility="hidden"></rect></g></svg></g></svg>